<svg width="61" height="40" viewBox="0 0 61 40" fill="none" xmlns="http://www.w3.org/2000/svg">
<path d="M14.3508 8.94174L8.23318 8.7764C6.42835 8.72762 4.6866 8.10193 3.2633 6.99106C1.27868 5.44209 0.0882499 3.08875 0.0163495 0.572232L0 0H13.9266C15.789 0 17.6294 0.402572 19.3218 1.18014L19.5449 1.28263C20.8753 1.89391 22.0784 2.75083 23.0909 3.80839C25.7842 6.62136 26.8913 10.5953 26.0405 14.3957L25.4545 17.013C30.0065 19.0961 32.6621 23.9097 31.9965 28.8712L31.6883 31.1688C30.3461 35.5901 26.5227 38.8037 21.9364 39.3653L16.7532 40L18.2929 39.6579C19.5881 39.37 20.8038 38.7996 21.8529 37.9874L22.2 37.7186C23.5521 36.6718 24.5185 35.2058 24.9477 33.5506C25.1118 32.9177 25.1948 32.2665 25.1948 31.6127V30.2697C25.1948 29.3225 24.9845 28.3871 24.579 27.5311L24.5203 27.4072C24.194 26.7184 23.7334 26.1019 23.1655 25.5937C22.1297 24.667 20.7919 24.1492 19.4021 24.1373L15.1019 24.1002C10.0866 24.0569 5.78882 20.5026 4.80519 15.5844H14.3369C14.8165 15.5844 15.2904 15.48 15.7256 15.2786C18.2599 14.1053 18.2307 10.4853 15.7144 9.27374C15.2901 9.06944 14.8215 8.95446 14.3508 8.94174Z" fill="#5856D6"/>
<path d="M54.4009 17.5376L54.6333 17.684C57.0094 19.18 58.7826 21.4651 59.6418 24.1383C60.3012 26.1897 60.3935 28.3812 59.909 30.4808L59.7998 30.9543C59.336 32.9639 58.3321 34.8085 56.8964 36.2891C55.6085 37.6172 54.0147 38.6095 52.2545 39.1789L52.195 39.1982C51.0844 39.5575 49.9258 39.7467 48.7585 39.7593L26.4935 40C30.6456 39.2166 33.8945 35.9707 34.6818 31.8194L34.8052 31.1688H48.1303C48.8389 31.1688 49.5292 30.9437 50.1017 30.526L50.1823 30.4672C52.0368 29.1139 51.96 26.3223 50.034 25.073C49.5032 24.7287 48.8841 24.5455 48.2514 24.5455H43.2811C41.3773 24.5455 39.4973 24.122 37.7774 23.3058L37.4805 23.1648C34.4491 21.7262 32.1526 19.0919 31.1409 15.8927C29.3024 10.0792 32.0837 3.80687 37.6265 1.26641L37.92 1.1319C39.5473 0.386079 41.3162 0 43.1063 0H57.1429C56.925 5.01079 52.7993 8.96104 47.7837 8.96104H43.3766L42.5948 8.99317C39.5615 9.11783 38.2945 12.929 40.6495 14.8449C41.2374 15.3233 41.9722 15.5844 42.7302 15.5844H47.6329C50.0279 15.5844 52.3741 16.2615 54.4009 17.5376Z" fill="#5856D6"/>
<circle cx="16.7532" cy="32.5974" r="4.67532" fill="#5856D6"/>
</svg>
