<svg width="236" height="156" viewBox="0 0 236 156" fill="none" xmlns="http://www.w3.org/2000/svg">
<path d="M56.1092 35.1492L32.4036 34.5085C25.4098 34.3195 18.6606 31.895 13.1453 27.5904C5.45491 21.5881 0.841968 12.4689 0.563354 2.71741L0.5 0.5H54.4819C61.688 0.5 68.8089 2.05762 75.3569 5.06616L76.2363 5.4702C81.3917 7.8389 86.0537 11.1595 89.9774 15.2575C100.414 26.1577 104.704 41.5569 101.407 56.2832L99.1364 66.4253C116.775 74.4973 127.066 93.1501 124.487 112.376L123.292 121.279C118.091 138.412 103.275 150.865 85.5036 153.041L65.4188 155.5L71.385 154.174C76.404 153.059 81.1146 150.848 85.18 147.701L86.5251 146.66C91.7645 142.603 95.5094 136.923 97.1723 130.509C97.8081 128.056 98.1299 125.533 98.1299 122.999V117.795C98.1299 114.125 97.3148 110.5 95.7436 107.183L95.5161 106.703C94.2519 104.034 92.467 101.645 90.2662 99.6756C86.2527 96.0846 81.0686 94.0783 75.6833 94.0319L59.0199 93.8882C39.5854 93.7207 22.9317 79.9474 19.1201 60.8896H56.0556C57.914 60.8896 59.7502 60.4852 61.4366 59.7044C71.2572 55.1579 71.1439 41.1305 61.3933 36.4358C59.749 35.6441 57.9335 35.1985 56.1092 35.1492Z" fill="#8440D9"/>
<path d="M211.303 68.4583L212.204 69.0254C221.411 74.8226 228.283 83.6774 231.612 94.0358C234.167 101.985 234.525 110.477 232.647 118.613L232.224 120.448C230.427 128.235 226.537 135.383 220.974 141.12C215.983 146.267 209.807 150.112 202.986 152.318L202.756 152.393C198.452 153.785 193.962 154.518 189.439 154.567L103.162 155.5C119.252 152.464 131.841 139.887 134.892 123.8L135.37 121.279H187.005C189.751 121.279 192.426 120.407 194.644 118.788L194.957 118.56C202.143 113.316 201.845 102.499 194.382 97.6577C192.325 96.3236 189.926 95.6136 187.474 95.6136H168.214C160.837 95.6136 153.552 93.9727 146.887 90.8098L145.737 90.2638C133.99 84.6892 125.091 74.4809 121.171 62.0841C114.047 39.5568 124.824 15.2516 146.303 5.40736L147.44 4.88611C153.746 1.99605 160.6 0.5 167.537 0.5H221.929C221.084 19.9168 205.097 35.224 185.662 35.224H168.584L165.555 35.3485C153.801 35.8316 148.891 50.5999 158.017 58.0241C160.295 59.8777 163.142 60.8896 166.08 60.8896H185.077C194.358 60.8896 203.45 63.5134 211.303 68.4583Z" fill="#8440D9"/>
<circle cx="65.4186" cy="126.815" r="18.1169" fill="#8440D9"/>
</svg>
